<svg xmlns="http://www.w3.org/2000/svg" width="568.005" height="623.622" viewBox="0 0 568.005 623.622"><linearGradient id="a" gradientUnits="userSpaceOnUse" x1="283.464" y1="2.581" x2="283.464" y2="525.775"><stop offset="0" stop-color="#0ad2e1"/><stop offset="1" stop-color="#0080a6"/></linearGradient><path fill="url(#a)" d="M542.835 0H24.095C10.843 0 0 10.843 0 24.095v490.393c0 13.252 10.843 24.095 24.095 24.095h32.598l62.849 82.505c4.41 4.41 8.018 2.916 8.018-3.32v-79.185h415.276c13.252 0 24.094-10.843 24.094-24.095V24.095C566.929 10.843 556.087 0 542.835 0z"/><g fill="#787878"><path d="M161.403 590.227c0-.876.677-1.553 1.513-1.553a1.53 1.53 0 0 1 1.552 1.553v2.786c1.671-2.468 4.099-4.577 7.879-4.577 4.935 0 9.83 3.901 9.83 10.666v.079c0 6.727-4.855 10.705-9.83 10.705-3.82 0-6.288-2.068-7.879-4.376v8.954c0 .876-.637 1.552-1.512 1.552a1.53 1.53 0 0 1-1.553-1.552v-24.237zm17.631 8.995v-.081c0-4.854-3.342-7.959-7.244-7.959-3.82 0-7.442 3.224-7.442 7.92v.079c0 4.776 3.622 7.959 7.442 7.959 3.981 0 7.244-2.944 7.244-7.918zM190.262 603.48v-.08c0-4.339 3.582-6.646 8.795-6.646 2.626 0 4.498.359 6.328.876v-.716c0-3.702-2.268-5.611-6.129-5.611-2.069 0-3.82.478-5.333 1.152a1.542 1.542 0 0 1-.558.121c-.716 0-1.353-.599-1.353-1.313 0-.638.438-1.115.836-1.274 2.029-.876 4.099-1.393 6.726-1.393 2.905 0 5.134.756 6.646 2.269 1.393 1.393 2.109 3.384 2.109 6.01v11.263c0 .875-.637 1.512-1.472 1.512-.875 0-1.473-.637-1.473-1.432v-1.871c-1.433 1.871-3.821 3.541-7.442 3.541-3.819-.002-7.68-2.189-7.68-6.408zm15.164-1.592v-1.991a21.515 21.515 0 0 0-6.05-.874c-3.861 0-6.01 1.671-6.01 4.257v.081c0 2.586 2.388 4.099 5.174 4.099 3.78-.001 6.886-2.309 6.886-5.572zM218.841 590.227c0-.836.677-1.553 1.513-1.553a1.53 1.53 0 0 1 1.551 1.553v3.86c1.513-3.423 4.498-5.492 7.085-5.492.915 0 1.512.677 1.512 1.552 0 .836-.557 1.434-1.353 1.552-3.979.479-7.244 3.462-7.244 9.393v7.005c0 .836-.637 1.552-1.511 1.552a1.53 1.53 0 0 1-1.553-1.552v-17.87zM255.382 583.182c0-.876.717-1.592 1.552-1.592h10.308c3.184 0 5.691.915 7.284 2.468 1.153 1.193 1.79 2.666 1.79 4.457v.08c0 3.621-2.229 5.492-4.417 6.447 3.303.995 5.97 2.906 5.97 6.727v.079c0 4.775-4.02 7.601-10.108 7.601h-10.826c-.835 0-1.552-.715-1.552-1.592v-24.675zm11.342 10.825c3.782 0 6.408-1.711 6.408-4.975v-.08c0-2.746-2.189-4.538-6.169-4.538h-8.477v9.593h8.238zm1.115 12.617c4.219 0 6.845-1.87 6.845-4.975v-.079c0-3.024-2.547-4.776-7.402-4.776h-8.796v9.83h9.353zM288.102 583.024c0-.836.717-1.554 1.552-1.554h.438c.716 0 1.153.36 1.591.917l16.915 21.57v-21.014c0-.837.676-1.551 1.552-1.551.836 0 1.512.714 1.512 1.551v25.152c0 .836-.597 1.473-1.433 1.473h-.159c-.677 0-1.153-.398-1.631-.956l-17.273-22.087v21.57c0 .836-.676 1.552-1.552 1.552-.835 0-1.512-.716-1.512-1.552v-25.071zM323.526 583.182c0-.876.718-1.592 1.553-1.592h8.875c6.288 0 10.427 3.343 10.427 8.835v.08c0 6.01-5.014 9.113-10.944 9.113h-6.766v8.438c0 .876-.716 1.592-1.592 1.592-.835 0-1.553-.716-1.553-1.592v-24.874zm10.031 13.571c4.616 0 7.642-2.467 7.642-6.129v-.079c0-3.979-2.985-6.049-7.482-6.049h-7.045v12.257h6.885zM370.019 583.182c0-.876.716-1.592 1.552-1.592h8.875c6.289 0 10.428 3.343 10.428 8.835v.08c0 6.01-5.015 9.113-10.944 9.113h-6.766v8.438c0 .876-.716 1.592-1.593 1.592-.836 0-1.552-.716-1.552-1.592v-24.874zm10.03 13.571c4.615 0 7.641-2.467 7.641-6.129v-.079c0-3.979-2.985-6.049-7.482-6.049h-7.044v12.257h6.885zM396.291 607.38l11.303-24.715c.398-.876.996-1.395 1.99-1.395h.159c.955 0 1.592.519 1.95 1.395l11.303 24.674c.119.279.199.558.199.797 0 .836-.677 1.512-1.513 1.512-.757 0-1.274-.517-1.552-1.153l-2.906-6.407h-15.282l-2.905 6.486c-.278.676-.797 1.074-1.512 1.074a1.427 1.427 0 0 1-1.434-1.432c.001-.239.041-.517.2-.836zm19.701-8.158l-6.408-14.25-6.408 14.25h12.816zM433.189 583.182c0-.876.717-1.592 1.553-1.592h10.426c3.424 0 6.169 1.035 7.921 2.786 1.353 1.353 2.149 3.303 2.149 5.492v.079c0 4.577-3.104 7.243-7.442 8.079l6.925 8.914c.318.359.518.718.518 1.155 0 .836-.797 1.552-1.593 1.552-.636 0-1.114-.358-1.472-.836l-7.841-10.188h-7.999v9.433c0 .876-.717 1.592-1.592 1.592-.836 0-1.553-.716-1.553-1.592v-24.874zm11.701 12.617c4.18 0 7.165-2.149 7.165-5.731v-.08c0-3.422-2.627-5.491-7.125-5.491h-8.596V595.8h8.556zM466.228 582.984c0-.877.717-1.591 1.552-1.591.876 0 1.592.714 1.592 1.591v25.072c0 .876-.716 1.592-1.592 1.592-.835 0-1.552-.716-1.552-1.592v-25.072zM481.513 583.182c0-.876.716-1.592 1.552-1.592h10.309c3.183 0 5.689.915 7.283 2.468 1.152 1.193 1.79 2.666 1.79 4.457v.08c0 3.621-2.229 5.492-4.418 6.447 3.304.995 5.97 2.906 5.97 6.727v.079c0 4.775-4.02 7.601-10.108 7.601h-10.825c-.836 0-1.552-.715-1.552-1.592v-24.675zm11.341 10.825c3.781 0 6.407-1.711 6.407-4.975v-.08c0-2.746-2.188-4.538-6.168-4.538h-8.478v9.593h8.239zm1.115 12.617c4.219 0 6.846-1.87 6.846-4.975v-.079c0-3.024-2.548-4.776-7.402-4.776h-8.796v9.83h9.352zM512.521 607.38l11.303-24.715c.397-.876.994-1.395 1.989-1.395h.16c.955 0 1.592.519 1.949 1.395l11.303 24.674c.12.279.199.558.199.797 0 .836-.677 1.512-1.513 1.512-.756 0-1.272-.517-1.552-1.153l-2.906-6.407h-15.281l-2.905 6.486c-.278.676-.797 1.074-1.513 1.074a1.426 1.426 0 0 1-1.433-1.432c0-.239.04-.517.2-.836zm19.699-8.158l-6.407-14.25-6.406 14.25h12.813zM547.946 606.105c-.358-.238-.597-.675-.597-1.192 0-.876.676-1.552 1.512-1.552.398 0 .758.158.955.358 2.627 2.228 5.254 3.303 8.797 3.303 3.74 0 6.207-1.99 6.207-4.737v-.078c0-2.588-1.393-4.06-7.243-5.293-6.407-1.394-9.352-3.463-9.352-8.04v-.079c0-4.38 3.86-7.602 9.153-7.602 3.66 0 6.328.914 8.875 2.746.318.238.677.676.677 1.273 0 .836-.677 1.512-1.513 1.512-.358 0-.637-.08-.916-.278-2.347-1.711-4.616-2.427-7.203-2.427-3.621 0-5.93 1.988-5.93 4.496v.08c0 2.626 1.433 4.099 7.562 5.412 6.209 1.353 9.074 3.622 9.074 7.881v.08c0 4.773-3.98 7.879-9.512 7.879-4.058 0-7.441-1.273-10.546-3.742z"/></g><g fill="#006280"><path d="M56.693 124.957h22.796v2.835H56.693zM79.489 178.889h61.907v2.834H79.489zM141.396 124.957h22.794v2.835h-22.794z"/></g><g fill="#13E4F2"><path d="M79.489 202.858h61.907v2.834H79.489zM56.693 257.524h22.796v2.834H56.693zM141.396 257.524h22.794v2.834h-22.794z"/></g><path fill="#FFF" d="M56.693 127.792h22.796v53.932h61.907v-53.932h22.794v129.732h-22.794v-54.666H79.489v54.666H56.693V127.792z"/><g fill="#006280"><path d="M224.84 157.617c30.573 0 46.3 23.599 46.86 51.118.015-.438.027-.875.027-1.31 0-28.168-15.749-52.643-46.887-52.643-27.992 0-47.823 22.988-47.823 50.98v.368c0 .41.02.812.028 1.218.581-27.422 20.222-49.731 47.795-49.731z"/><path d="M249.491 201.741c-.099-.96-.23-1.905-.391-2.834h-49.363c-.189.925-.35 1.871-.479 2.834h50.233zM227.618 238.565c-13.573 0-24.366-7.847-27.632-22.003h-.542c2.416 15.941 13.72 24.837 28.174 24.837 10.938 0 18.719-4.077 26.502-11.676l13.161 11.676v-2.834l-13.161-11.677c-7.783 7.6-15.565 11.677-26.502 11.677z"/></g><g fill="#13E4F2"><path d="M224.662 175.975c-13.728 0-23.362 10.563-25.404 25.766h.479c2.801-13.665 12.067-22.931 24.924-22.931 13.844 0 22.182 9.856 24.438 22.931h.391c-1.486-14.46-10-25.766-24.828-25.766zM227.255 259.75c-27.98 0-49.628-20.028-50.211-49.567-.009.417-.028.83-.028 1.249v.368c0 30.209 21.873 50.785 50.239 50.785 17.963 0 30.756-7.229 40.026-18.351V241.4c-9.27 11.121-22.063 18.35-40.026 18.35z"/><path d="M271.358 216.562h-71.915c.147.972.33 1.916.542 2.834h71.373c.186-2.211.368-4.259.368-6.302 0-.51-.017-1.017-.027-1.525-.054 1.615-.194 3.253-.341 4.993z"/></g><path fill="#FFF" d="M177.017 208.964v-.368c0-27.991 19.832-50.979 47.823-50.979 31.138 0 46.887 24.475 46.887 52.643 0 2.043-.182 4.091-.368 6.302h-71.915c2.416 15.941 13.72 24.837 28.174 24.837 10.938 0 18.719-4.077 26.502-11.676l13.161 11.676c-9.27 11.122-22.063 18.351-40.026 18.351-28.365 0-50.238-20.577-50.238-50.786zm72.474-7.223c-1.487-14.46-10.001-25.766-24.83-25.766-13.728 0-23.362 10.563-25.404 25.766h50.234z"/><path fill="#006280" d="M285.094 119.379h22.426v2.834h-22.426z"/><path fill="#13E4F2" d="M285.094 257.524h22.426v2.834h-22.426z"/><path fill="#FFF" d="M285.094 122.213h22.426v135.311h-22.426V122.213z"/><path fill="#006280" d="M327.171 119.379h22.42v2.834h-22.42z"/><path fill="#13E4F2" d="M327.171 257.524h22.42v2.834h-22.42z"/><path fill="#FFF" d="M327.171 122.213h22.42v135.311h-22.42V122.213z"/><g fill="#006280"><path d="M414.423 154.782c-30.023 0-52.267 23.174-52.267 51.161v.373c0 .413.021.821.03 1.231.644-27.431 22.655-49.931 52.236-49.931 29.59 0 51.41 22.134 52.054 49.552.01-.408.03-.814.03-1.225v-.366c.001-27.991-22.046-50.795-52.083-50.795z"/><path d="M384.586 208.778c0 17.054 12.427 31.508 29.837 31.508 18.173 0 29.664-14.262 29.664-31.136v-.373c0-.401-.013-.799-.026-1.197-.56 16.315-11.921 29.871-29.638 29.871-17.004 0-29.248-13.789-29.81-30.321a36.34 36.34 0 0 0-.027 1.281v.367z"/></g><g fill="#13E4F2"><path d="M444.087 208.778c0-17.238-12.418-31.512-30.028-31.512-17.98 0-29.473 14.096-29.473 31.146v.366c0 .397.014.792.027 1.187.561-16.468 11.918-29.864 29.445-29.864 17.2 0 29.44 13.619 30.002 30.314a37.9 37.9 0 0 0 .026-1.264v-.373z"/><path d="M414.059 259.75c-29.401 0-51.229-22.128-51.872-49.368-.009.411-.03.818-.03 1.23v.373c0 27.804 22.058 50.599 51.902 50.599 30.209 0 52.448-23.164 52.448-50.972v-.366c0-.417-.021-.829-.03-1.243-.645 27.258-22.656 49.747-52.418 49.747z"/></g><path fill="#FFF" d="M362.156 209.15v-.373c0-27.987 22.243-51.161 52.267-51.161 30.037 0 52.084 22.804 52.084 50.795v.366c0 27.808-22.239 50.972-52.448 50.972-29.845.001-51.903-22.795-51.903-50.599zm81.931 0v-.373c0-17.238-12.418-31.512-30.028-31.512-17.98 0-29.473 14.096-29.473 31.146v.366c0 17.054 12.427 31.508 29.837 31.508 18.173.001 29.664-14.261 29.664-31.135z"/><path fill="#006280" d="M487.811 277.939h22.426v2.835h-22.426z"/><path fill="#13E4F2" d="M487.811 381.564h22.426v2.834h-22.426z"/><path fill="#FFF" d="M487.811 280.774h22.426v100.79h-22.426v-100.79z"/><path fill="#006280" d="M487.811 391.228h22.426v2.835h-22.426z"/><path fill="#13E4F2" d="M487.811 413.888h22.426v2.835h-22.426z"/><path fill="#FFF" d="M487.811 394.063h22.426v19.825h-22.426v-19.825z"/><g fill="#006280"><path d="M269.462 313.349h22.434v2.834h-22.434zM322.479 311.309c-15.194 0-24.276 7.972-30.583 17.239v2.835c6.307-9.269 15.389-17.239 30.583-17.239 22.058 0 34.849 14.834 34.849 37.634v-2.835c-.001-22.799-12.792-37.634-34.849-37.634z"/></g><g fill="#13E4F2"><path d="M334.897 358.443c0-15.191-7.604-23.901-20.95-23.901-12.971 0-22.052 9.076-22.052 24.277v2.835c0-15.201 9.081-24.277 22.052-24.277 13.347 0 20.95 8.709 20.95 23.9v-2.834zM269.462 414.049h22.434v2.835h-22.434zM334.897 414.049h22.43v2.835h-22.43z"/></g><path fill="#FFF" d="M269.462 316.183h22.434v15.2c6.307-9.269 15.389-17.239 30.583-17.239 22.058 0 34.849 14.834 34.849 37.634v62.271h-22.43v-55.606c0-15.191-7.604-23.901-20.95-23.901-12.971 0-22.052 9.076-22.052 24.277v55.23h-22.434v-97.866z"/><g fill="#006280"><path d="M395.868 359.563l40.589-43.38h27.245v-2.834h-27.245l-40.589 43.38zM425.924 354.86l-1.15 1.177 40.217 58.012v-2.835zM373.438 277.939h22.43v2.835h-22.43z"/></g><g fill="#13E4F2"><path d="M425.924 357.695l37.778-38.678v-2.834l-38.928 39.854zM439.049 414.049l-29.469-42.256-13.712 14.271v2.834l13.712-14.271 29.469 42.257h25.942v-2.835zM373.438 414.049h22.43v2.835h-22.43z"/></g><path fill="#FFF" d="M373.438 280.774h22.43v78.789l40.589-43.38h27.245l-38.928 39.854 40.217 58.013h-25.942l-29.469-42.256-13.712 14.271v27.985h-22.43V280.774z"/><g fill="#006280"><path d="M110.239 396.902c17.369 0 31.032-12.041 31.032-31.312v-.38c0-.409-.015-.812-.027-1.216-.575 18.545-14.012 30.073-31.004 30.073-6.925 0-19.416-.931-31.152-11.002l-.013 2.824c11.739 10.081 24.237 11.013 31.164 11.013zM56.693 277.533h22.414v2.834H56.693zM112.294 311.589c-14.184 0-27.866 6.169-33.187 8.99v2.834c5.321-2.82 19.003-8.99 33.187-8.99 26.44 0 48.073 17.885 48.626 49.551.007-.407.026-.807.026-1.219v-.381c0-32.442-21.867-50.785-48.652-50.785z"/></g><g fill="#13E4F2"><path d="M79.086 385.9l.021-4.581v-2.835l-.033 7.405z"/><path d="M112.294 416.369c-15.975 0-39.983-3.998-55.601-26.099v2.835c15.618 22.1 39.626 26.098 55.601 26.098 26.534 0 48.652-18.358 48.652-50.779v-.38c0-.417-.019-.821-.026-1.234-.553 31.654-22.43 49.559-48.626 49.559zM141.271 365.209c0-18.896-13.663-31.312-31.032-31.312-14.817 0-26.285 6.269-31.132 9.652v2.835c4.847-3.384 16.315-9.652 31.132-9.652 16.993 0 30.429 11.888 31.004 30.097.013-.411.027-.821.027-1.239v-.381z"/></g><path fill="#FFF" d="M112.294 314.423c-14.184 0-27.866 6.17-33.187 8.99v-43.047H56.693V390.27c15.618 22.101 39.626 26.099 55.601 26.099 26.534 0 48.652-18.358 48.652-50.779v-.38c0-32.443-21.867-50.787-48.652-50.787zm28.977 51.166c0 19.271-13.663 31.312-31.032 31.312-6.927 0-19.424-.932-31.165-11.013l.033-7.405v-34.935c4.847-3.384 16.315-9.652 31.132-9.652 17.369 0 31.032 12.417 31.032 31.312v.381z"/><g fill="#006280"><path d="M207.28 351.605c11.853 0 19.464 1.653 27.055 4.067v-1.852c0-.343-.029-.661-.041-.995-7.578-2.407-15.183-4.055-27.015-4.055-22.808 0-39.166 12.223-39.166 33.904v.372c0 .381.019.753.032 1.127.663-20.842 16.802-32.568 39.135-32.568zM187.56 384.765c0 9.271 9.527 14.46 20.094 14.46 11.624 0 27.055-4.231 27.055-21.288v-2.834c0 17.056-15.432 21.287-27.055 21.287-10.111 0-19.248-4.76-20.019-13.294a12.5 12.5 0 0 0-.076 1.302v.367zM213.389 311.867c-15.935 0-26.497 3.339-37.254 8.158v2.834c10.757-4.819 21.319-8.157 37.254-8.157 28.918 0 42.499 17.779 42.499 41.335v-2.834c-.001-23.557-13.581-41.336-42.499-41.336z"/></g><g fill="#13E4F2"><path d="M182.247 342.654c8.898-3.703 17.06-6.112 27.996-6.112 15.172 0 23.632 6.271 24.052 19.118l.041.013v-1.852c0-13.533-8.526-20.114-24.093-20.114-10.936 0-19.097 2.41-27.996 6.113l-6.112-16.961s.175 2.757 0 2.835l6.112 16.96zM212.272 367.354c-14.08 0-24.712 7.59-24.712 17.044v.367c0 .399.041.781.076 1.165.926-8.839 11.21-15.741 24.636-15.741 8.718 0 16.686 1.671 22.438 3.885v-2.834c-5.752-2.215-13.72-3.886-22.438-3.886z"/><path d="M239.09 409.099c-9.839 6.416-25.978 6.991-36.639 6.991-16.404 0-33.642-10.165-34.305-29.081-.014.442-.032.884-.032 1.335v.372c0 19.644 17.608 30.209 34.337 30.209 10.662 0 26.8-.576 36.639-6.992 14.354-9.37 16.797-21.557 16.797-29.247v-2.835c0 7.691-2.443 19.877-16.797 29.248z"/></g><path fill="#FFF" d="M239.09 409.099c-9.839 6.416-25.978 6.991-36.639 6.991-16.729 0-34.337-10.565-34.337-30.209v-.372c0-21.682 16.358-33.904 39.166-33.904 11.853 0 19.464 1.653 27.055 4.067v-1.852c0-13.533-8.526-20.114-24.093-20.114-10.936 0-19.097 2.41-27.996 6.113l-6.112-16.961c10.757-4.819 21.319-8.157 37.254-8.157 28.918 0 42.499 17.779 42.499 41.335v23.814c0 7.692-2.443 19.878-16.797 29.249zm-4.381-37.859c-5.752-2.215-13.719-3.886-22.438-3.886-14.08 0-24.712 7.59-24.712 17.044v.367c0 9.271 9.527 14.46 20.094 14.46 11.624 0 27.055-4.231 27.055-21.288v-6.697z"/></svg>