<?xml version="1.0" encoding="utf-8"?>
<!-- Generator: Adobe Illustrator 19.1.0, SVG Export Plug-In . SVG Version: 6.00 Build 0)  -->
<svg version="1.1" id="Layer_1" xmlns="http://www.w3.org/2000/svg" xmlns:xlink="http://www.w3.org/1999/xlink" x="0px" y="0px"
	 viewBox="90 9 250 53" style="enable-background:new 90 9 250 53;" xml:space="preserve">
<style type="text/css">
	.st0{fill:#FFFFFF;}
	.st1{fill:#000066;}
	.st2{fill:#FF6200;}
</style>
<g>
	<path class="st0" d="M196,15.3l-1.2-2.5l-0.3-0.2l-0.8-0.2l-2.3,0.8l-0.1,1.4l0.1,0.2c0,0,0.2,0.4,0.4,0.5c0.2,0.2,1.8,0.7,1.8,0.7
		"/>
	<path class="st1" d="M155.7,28.3v5.1c-2.9,1.4-5.6,2.1-8.2,2.1c-7.5,0-11.9-4.4-11.9-9.9c0-6,5.1-10.9,11.7-10.9
		c1.6,0,2.8,0.3,4.1,0.7c0.9,0.3,1.5,0.6,2.1,0.6c0.5,0,0.6-0.8,0.7-1.3h0.7l0.6,6.9h-0.9c-0.4-1.4-1-2.5-1.9-3.3
		c-1.3-1.4-3.2-2.1-5.3-2.1c-4.5,0-7.1,3.6-7.1,8.9c0,5.3,3.2,8.9,7.5,8.9c1.3,0,2.4-0.3,3.8-0.9v-5.3c0-1.7-0.3-2.3-2.7-2.3v-0.8h9
		v0.8C155.7,25.5,155.7,26.2,155.7,28.3 M130.9,19.9v15.3h-1.2l-15.3-15.8c0.1,0.4,0.1,0.8,0.1,1.2v9.6c0,3,0,4,2.7,4v0.8H110v-0.8
		c2.7,0,2.7-1.3,2.7-4V19.3c0-1.6,0-3.4-2.9-3.4v-0.8h6.8l12.6,12.9c-0.1-0.4-0.1-0.6-0.1-1.1v-7.1c0-2.8,0.1-4.1-2.6-4.1v-0.7h7.2
		v0.8C131,15.9,130.9,17,130.9,19.9 M96.1,35.1v-0.8c1.7,0,3-0.1,3-2.6V18.5c0-2.6-0.9-2.6-3-2.6v-0.8h10.1v0.8c-2.1,0-3,0.1-3,2.6
		v13.1c0,2.5,1.1,2.6,3,2.6v0.8L96.1,35.1L96.1,35.1z"/>
	<path class="st2" d="M175.6,35.1c-0.4-0.6-0.4-1.6-0.4-1.9c0-0.4,0-0.9,0.2-1.2l-0.8,0.1c-0.2,0.3-0.3,0.4-0.3,0.6l0.4-0.1
		c0.1,0,0.1,0.1,0.2,0.3c-0.1,0.4-0.5,0.4-0.6,0.5c-0.2,0.8,0.4,1.1,0.5,1.7 M203.1,25.9c0-3.1-1.3-6.3-3.6-8.5c-1-1-2.1-1.5-3-2.4
		c-0.4-0.4-0.8-0.9-1.1-1.4c-0.4-0.4-0.6-0.6-1-0.8c0.1,0.2,0.1,0.4,0.2,0.6h-0.1c-0.4,0-0.8-0.2-1-0.4l0.3-0.3
		c-0.1-0.1-0.3-0.1-0.4-0.1c-1.1-0.2-2.2,0.4-3.3,0.6v0.1c0.7,0.2,0.8,1.1,1.3,1.5h0.4c0.1,0,0.4,0.1,0.5,0.1c0-0.1-0.1-0.4-0.1-0.4
		c0.1-0.1,0.3-0.1,0.4,0c0.4,0.2,0.9-0.1,1.2,0.4c-0.4,0-0.9,0-1.2,0.2c0,0.1,0.2,0.2,0.1,0.4c-0.4-0.1-0.8,0-0.9-0.3l-0.1,0.1
		c0.4,0.5,1.1,0.9,1.7,1.1c0.9,0.1,1.7-0.3,2.6-0.1c3.3,1.6,5.5,5.3,5.5,9c0,5.3-3,7.3-4.9,7.3c-0.4,0-0.9-0.2-1.1-0.4
		c0.2-0.8,0.3-1.6,0.3-2.9c0-3.1-1.2-6.3-2.9-8c-0.8-0.8-1.6-1.4-2.5-1.4c-0.4,0-0.9,0-1.1,0.4c-0.4,0.3-0.6,0.9-0.5,1.2
		c-0.6,0.4-1.5,0.6-2.3,0.6c-0.8,0-1.8-0.3-2.7-1v-1.1c-0.2-0.1-0.9-0.5-0.6-0.8c0.2,0.1,0.4,0.2,0.4,0.3c-0.1-0.4-0.1-1.1-0.4-1.5
		c-0.1,0-0.4,0-0.6-0.1c-0.2-0.2-0.4-0.5-0.4-0.9c0.2,0.4,0.6,0.2,0.8,0.4c-0.4-0.9-0.2-1.2-0.9-2.4c-0.1-0.6-0.8-1-1.2-1.4
		c-0.2-0.1-0.3-0.4-0.6-0.4c-0.3-0.1-0.3-0.4-0.3-0.6c0.1,0,0.3,0.1,0.4,0.2c-0.4-0.9-0.7-2.1-1.6-2.6l-0.2,0.1h-1.1
		c0.1-0.1,0.4-0.2,0.6-0.4c-0.2-0.2-0.4-0.3-0.8-0.3c-0.2,0.1-0.4,0.3-0.8,0.3h-0.1c0-0.2-0.1-0.5,0.4-0.6c-0.4-0.1-0.8-0.1-1.3,0
		c-0.1,0.4-0.3,0.6-0.3,0.9c-0.2,0.1-0.3,0.4-0.5,0.6c0-0.4,0.2-0.9,0.3-1.3c-0.3,0.1-0.6,0.3-0.8,0.3c-0.6-0.3-1.3-0.6-1.6-0.6
		c0.4,0.3,0.3,0.8,0.3,1.1L173,9.9c-0.1-0.3-0.4-0.5-0.5-0.9c-0.4,0-0.8,0.1-1.1,0.4v0.1c0.2,0,0.5,0.2,0.6,0.4
		c-0.5,0-0.9-0.2-1.4-0.2c0,0,0-0.1-0.1-0.1c-0.2,0.1-0.4,0.3-0.5,0.4c-0.5,0.4-0.9,0.8-1.1,1.4c0.1,0,0.4,0,0.4,0.1
		c-0.3,0.1-0.4,0.4-0.7,0.5v1.1c-0.2,0.2-0.5,0.4-0.6,0.9c-0.4,1.1-0.4,2.4-0.4,3.8c-0.1,0.3-0.2,0.4-0.4,0.4v1.1
		c0,0,0.4-0.4,0.6-0.6v0.9c-0.3,0-0.5,0.4-0.5,0.6c0,0.3,0.1,0.6,0.1,0.9c0,0.1,0,0.1,0.1,0.3c0-0.1,0.1-0.3,0.4-0.4
		c0,0,0.1-0.1,0.4-0.1c-0.2,0.2-0.3,0.5-0.4,0.8l-0.3,0.2c0,0-0.1,0.1-0.1,0.2c0.3,1.4,0.7,2.8,1.3,4.1c-0.6,0.9-1.3,2.7-1.6,4.5
		c-0.4-0.4-0.9-0.4-1.3-0.4c-0.4,0.1-0.8,0.2-1.1,0.6c-0.4-0.3-1-0.1-1.3,0.1c-0.6,0.5-0.6,0.8-0.6,1.2c-0.1,0.1-0.4,0.5-0.4,1
		c0,0.6,0.1,1.1,0.4,1.6h10.7c-0.1-0.2-0.2-0.5-0.4-0.6c-0.2-0.4-0.1-1-0.1-1.4c0.2-0.4,0.4-0.8,0.7-1.2c0.1-0.2,0-0.2,0.1-0.3
		l0.5-0.1c0.3,0,0.5-0.2,0.9-0.2c0.3,0.3,0.3-0.2,0.6-0.4c0.8-0.1,1.5,0,1.9,0.6c0,0.1,0.1,0.1,0.1,0.2h-0.3
		c-0.4-0.2-0.9-0.4-1.4-0.2c0,0.2-0.1,0.2-0.1,0.4V32c0.3,0,0.5,0.3,0.8,0.4c0.1-0.2,0.5-0.4,0.8-0.4c0.4,0,0.9,0.2,0.9,0.8v0.8
		c0.3,0.3,0.6,0.4,1,0.5c-0.1,0.3-0.4,0.3-0.6,0.3h-0.6c-0.1-0.1-0.2-0.1-0.2-0.3c-0.2,0.3-0.4,0.6-0.5,0.9h8.3
		c-0.1-0.3-0.3-0.5-0.4-0.6c-0.1-0.4-0.1-1-0.1-1.4l0.8-1.1c0.4,0,0.8-0.1,1.6-0.2c0.1-0.3,0-0.3,0.6-0.3c0.5,0,0.9,0.1,1,0.2
		c0.1,0.1,0.1,0.1,0,0.3c-0.1,0.1-0.4-0.1-0.6-0.1c-0.1,0.1,0.1,0.2,0.1,0.4c0.1,0.1-0.6-0.1-0.6-0.1s-0.1,0.4-0.2,0.6
		c0,0,0.3,0.3,0.4,0.4c0.1,0.2-0.2,0.4-0.2,0.6c-0.1-0.1-0.4-0.3-0.4-0.2c-0.1,0.6,0,1.1-0.1,1.6h0.8l0.1-1.2c0.1-0.8,0.9-2,1.4-2
		c0.3,0,0.5,0.1,0.7,0.3c0.1,0.3,0.4,0.4,0.4,0.6c0,0.1-0.2,0.2-0.5,0.2c-0.1,0-0.1-0.2-0.4-0.4l-0.4,0.4c0,0,0.5,0.4,0.5,0.7
		c0,0.4-0.1,0.5-0.3,0.8l-0.4-0.9c-0.2,0-0.6,0.4-0.6,0.6c0,0.3-0.1,0.4-0.1,0.9h4.4c0.5,0,0.9-0.1,1.4-0.4h0.9
		c1.8,0,3.1-0.5,4.5-1.8C202.1,31.2,203.1,28.5,203.1,25.9 M187.7,32.4l-0.7,0.1c0.3,0.1,0.3,0.5,0.3,0.6c0,0.2-0.1,0.4-0.3,0.6
		c-0.1-0.1-0.1-0.4-0.3-0.6c-0.1,0-0.2,0.4-0.2,0.5c0,0.6,0.3,1.1,0.5,1.6h0.6c-0.1-0.6-0.3-1.1-0.3-1.7
		C187.4,33,187.6,32.6,187.7,32.4 M178.3,33.2c0-0.3-0.2-0.4-0.5-0.4c-0.1,0-0.4,0.2-0.4,0.4c0,0.3-0.1,1.9-0.1,1.9h0.4
		C177.9,34.4,178.3,33.6,178.3,33.2 M176.8,33.2c-0.1,0,0.1,0.1-0.6-0.6c-0.1,0-0.4,0.4-0.4,0.6c0,0.6,0.1,1.4,0.4,1.9h0.6
		C176.7,34.4,176.8,33.7,176.8,33.2 M195.5,15.2c-0.1-0.3-0.4-0.4-0.6-0.4c-0.2-0.3-0.5-0.6-0.8-0.6c0.2,0,0.5-0.2,0.9-0.2
		c0.1,0.4,0.4,0.6,0.5,0.9L195.5,15.2z M193.3,13.6h-0.8c-0.1-0.2-0.4,0-0.5,0s-0.2,0-0.5-0.2c0.4,0,0.6-0.2,1-0.4
		C192.9,13.3,193.1,13.3,193.3,13.6 M191.6,21.8c-0.5-0.1-0.8-0.4-1.2-0.4c-0.1,0-0.8,0.3-0.9,0.4c-0.3-0.3,0.1-0.9,0.4-1
		c0.3-0.1,0.4-0.1,0.6,0c0,0.4,0.5,0.3,0.8,0.4C191.5,21.4,191.6,21.6,191.6,21.8 M191.6,22.9c-0.4,0-0.4-0.1-0.8-0.1
		c-0.4,0-0.8,0.1-1,0.5c-0.1-0.3-0.1-0.4,0-0.6c0.2-0.2,0.6-0.5,0.9-0.5C191.2,22.2,191.6,22.5,191.6,22.9 M193.2,24.4
		c-0.6-0.4-1.4-0.6-1.9-0.6c-0.3,0-1.1,0.4-1.4,0.6l-0.1-0.6c0.4-0.1,0.4-0.4,0.7-0.4c0.2,0,0.5-0.1,0.7-0.1s0.3-0.1,0.4-0.1
		c0.4,0,0.2,0.4,0.4,0.4c0.2,0,0.4-0.1,0.5-0.1C192.9,23.4,193.1,24,193.2,24.4 M193.5,26c-0.5,0-1-0.1-1.1-0.4
		c-0.1-0.1,0-0.4-0.4-0.4c-0.1,0-0.4,0.2-0.4,0.2c-0.1,0.1-0.5-0.2-0.5,0c0,0.4-0.3,0.5-0.6,0.5c-0.1,0-0.3,0-0.4-0.1v-0.7
		c0.9,0,0.9-0.3,1.3-0.3c0.3,0,0.5,0.1,0.7,0.1c0.4,0,0.1-0.1,0.5-0.1c0.4,0,0.5,0.3,0.7,0.4C193.2,25.5,193.5,25.7,193.5,26
		 M192.8,27.5c-0.3-0.1-0.8-0.1-0.8-0.4c0-0.3-0.1-0.4-0.5-0.4c-0.3,0-0.4,0.1-0.9,0.2c0,0-0.2-0.3-0.3-0.6c0.1-0.1,0.7-0.2,0.9-0.2
		c0.5,0,1,0,1,0.2C192.4,26.8,192.8,26.8,192.8,27.5 M180.4,16.4c0,0.1-0.1,0.7-0.1,0.7l-0.6,0.1l0.4-1.6
		C180.1,16,180.4,16.2,180.4,16.4 M194.2,30.1c0,0.4,0,0.6-0.2,0.9l-0.4-0.6c0.1-0.2,0.1-0.5,0.4-0.9C194,29.5,194.2,30,194.2,30.1
		 M192.5,29.2c-0.5,0-0.2-1-1.3-1c-0.2,0-0.3,0.4-0.6,0.4c0-0.1,0.1-0.5,0.1-0.5c0-0.1,0.1-0.4,0.4-0.6c0.5,0,0.4,0.2,0.8,0.4
		c0.3,0.1,0.4,0.2,0.6,0.2C192.5,28.1,192.5,29.2,192.5,29.2z M188,25.1c-0.6-0.4-1-1-1.6-1.6c0.6,0,0.7,0.6,1.1,0.6
		c0.1,0.1,0.3,0.2,0.4,0.4V25.1z M181.8,19.8c-0.4,0-0.6-0.2-0.9-0.6c0-0.2-0.1-0.5,0-0.9c0.1,0.3,0.1,0.4,0.3,0.6
		c0.3-0.1,0.3,0.2,0.4,0.3C181.7,19.4,181.8,19.6,181.8,19.8 M193.6,31.9c-0.1,0.2-0.1,0.2-0.2,0.4c0-0.4-0.4-0.6-0.7-1.1l0.3-0.5
		c0.2,0.1,0.5,0.4,0.5,0.7c0,0-0.1,0.2,0,0.3C193.5,31.8,193.6,31.8,193.6,31.9 M192.2,29.9c0,0.3-0.1,0.4-0.1,0.7
		c-0.5-0.1-0.5-0.6-0.6-0.7c-0.3-0.4-0.8-0.1-1.2-0.1c-0.1-0.4,0.1-0.4,0.1-0.7c0.2,0,0.4-0.1,0.6,0c0.3-0.1,0.5,0.3,0.9,0.3
		C192,29.5,192.1,29.8,192.2,29.9 M188.6,27c0,0.3-0.1,0.5-0.1,0.8c-0.1-0.4-0.4-0.9-0.6-1.3c0-0.1-0.1-0.1,0.1-0.1
		c0.1,0,0.4,0,0.4,0.1C188.5,26.6,188.6,26.8,188.6,27 M182.3,21.4c-0.1,0.3-0.4,0-0.4,0h-0.6c-0.1-0.1-0.1-0.2-0.1-0.4
		c0.3-0.1,0.5-0.3,0.7-0.1C182,21.2,182.2,21.4,182.3,21.4 M183.9,23c-0.2,0.3-0.8,0.3-1.2-0.1l0.6-0.3
		C183.5,22.9,183.8,22.9,183.9,23 M187.6,27c0,0.4-0.1,0.9-0.1,1.4c-0.2,0-0.2-0.1-0.2-0.4c-0.1-0.4-0.2-0.8-0.4-1.2
		c-0.1-0.6-0.5-1-0.8-1.7c-0.1-0.3-0.4-0.4-0.8-0.6c0.4,0,0.8,0,1,0.3c0,0.1,0.1,0.2,0.3,0.4c0.5,0,0.4,0.6,0.8,0.9
		c-0.2,0.2-0.3,0.3-0.4,0.4C187.3,26.8,187.6,26.8,187.6,27 M184.8,25c0,0.2-0.1,0.3-0.3,0.4c0,0-0.3-0.4-0.3-0.5
		c0-0.3,0-0.4,0.1-0.6C184.5,24.4,184.8,24.7,184.8,25 M191.5,31.4l-0.1,0.2c-0.3-0.2-0.5-0.3-0.9-0.3c0-0.3-0.2-0.6-0.4-0.6
		c-0.4,0-0.4,0.3-0.7,0.3l0.6-0.6c0.1-0.1,0.1-0.1,0.2-0.1c0.2,0.1,0.3,0.2,0.5,0.2c0,0.1,0,0.2-0.1,0.4c0.2,0.1,0.4-0.1,0.5,0.1
		C191.3,31.1,191.5,31.2,191.5,31.4 M185.7,26.5c0,0.1-0.2,0.3-0.3,0.3c0,0-0.4-0.4-0.4-0.7c-0.1-0.3,0.2-0.8,0.2-0.8
		c0.1,0,0.1,0.1,0.2,0.1c0.1,0.1,0,0.3,0.1,0.5C185.7,26.1,185.9,26.3,185.7,26.5 M180.2,19.6c-0.9-0.5-1.8-0.8-2.8-0.9
		c0,0.2,0,0.4-0.1,0.5c0.8,0.4,1.6,0.8,2.3,1.4v0.6c-0.8-0.7-1.5-1.4-2.4-1.6c-0.1,0.1-0.3,0.3-0.4,0.6c-0.5-0.4-1.1-0.7-1.6-0.8
		c-0.2,0-0.4-0.8-0.4-0.8c0.4-0.1,0.6-0.4,0.8-0.8h0.3c0.2,0,0.2-0.1,0.2-0.4c0-0.4-0.9-0.4-1.4-0.4c-0.5,0-0.9,0-1.1,0.2
		c-0.1,0-0.1,0.2-0.1,0.4c0,0.1,0.2,0.2,0.2,0.2c0.1,0,0.3-0.1,0.4-0.1c-0.1,0.4,0.1,0.6,0.5,0.9l-0.1,0.7c-0.9,0-1.4,0.3-2.1,0.6
		c-0.2-0.1-0.4-0.4-0.5-0.6c-0.9,0.3-2.3,1.4-2.3,1.4v-0.4c0.6-0.6,1.4-0.9,2.1-1.2v-0.5c-0.3-0.1-0.6,0-0.9,0
		c-0.6,0.1-1.3,0.4-1.7,0.7c0-0.2-0.1-0.5-0.1-0.5c0.8-0.4,1.8-0.8,2.6-0.6v-0.3c-0.1-0.1-0.1-0.4-0.2-0.4c-0.4-0.4-0.9-1.1-0.9-1.5
		l0.3-0.1c-0.1-0.4-0.3-1.5,0-1.8c-0.4-0.2-0.8-0.6-0.9-0.9c-0.1-0.4-0.3-0.6-0.4-0.9c0.2-0.4,0.4-0.6,0.6-1c0.1,0,0.3-0.1,0.4-0.2
		c0.4-0.1,0.6-0.4,1-0.2c0.3,0,0.6,0.1,0.8,0.2c0,0.1,0,0.2,0.1,0.4c0.4,0,0.4,0.4,0.6,0.8c0.2,0.1,0.4,0.1,0.6,0.1
		c0.4,0.1,0.8,0.1,0.9,0.3c0.6-0.3,1.1-0.4,1.8-0.3c0.1-0.3,0.2-0.5,0.3-0.9c0.1,0.2,0.1,0,0.2,0c0.3-0.2,0.6-0.6,1.1-0.4
		c0.3,0.2,0.8,0.1,1.1,0.4c0.3,0.3,0.4,0.7,0.6,1.1c-0.2,0.4,0,1-0.4,1.2L179,14c-0.1,0-0.1,0.1-0.4,0.1c0.2,0.5,0.1,1.2-0.1,1.7
		c0.1-0.1,0.4-0.1,0.4-0.3c0.1,0.1,0,0.2,0,0.3V16c0,0.4-0.2,0.7-0.5,1c-0.1,0.4-0.5,1-0.9,1.1v0.1c1,0,1.9,0.3,2.9,0.8L180.2,19.6
		L180.2,19.6z M183.2,24.1l-0.4,0.1c-0.8,0-1.1-0.2-1.5-0.5c0.3,0,0.6-0.4,0.6-0.4C182.3,23.7,182.8,24,183.2,24.1 M181.2,22.4
		c-0.4,0-0.9,0.2-1.1-0.2c0.1-0.1,0.3-0.3,0.4-0.4L181.2,22.4z M187,29.2c0,0.4-0.4,0.8-0.6,1.1c0.1-0.4,0.1-1.1,0-1.1
		c-0.1-0.1-0.4,0-0.4-0.1c0-0.2,0.1-0.5,0.1-0.6c0-0.3-0.3-0.4-0.3-0.6c0-0.4,0.5-0.5,0.6-0.8c0.1,0.3,0.1,0.6,0.1,0.9
		c0,0.1,0.2,0.6,0,0.9C186.6,29.1,187,28.9,187,29.2 M185.3,28.3c0,0.4-0.3,0.8-0.4,1.2c0-0.4-0.1-0.8-0.4-1.1
		c0-0.1,0.2-0.1,0.1-0.4c0,0-0.4-0.2-0.4-0.5s0.3-0.5,0.4-0.7c0-0.1,0.3,0.1,0.3,0.6c0,0.1,0,0.3-0.1,0.4
		C184.8,28.2,185.3,28.2,185.3,28.3 M179.5,23.3c-0.4,0.1-0.6-0.3-1-0.4c-0.1-0.4-0.1-0.8-0.3-1.1c0.3,0.2,0.9,0.2,0.8,0.9
		C179,22.9,179.2,23,179.5,23.3 M181.4,25.3c-0.3,0-0.8,0-1.1-0.2c-0.4-0.2-0.6-0.4-0.8-0.6c0.3-0.2,0.6-0.2,0.8-0.3
		C180.7,24.5,180.9,25,181.4,25.3 M169.4,14.3l-0.5,0.1L169,14c0.1-0.2,0.2-0.4,0.4-0.6C169.4,13.4,169.4,14.3,169.4,14.3z
		 M178.6,24.2c-0.3,0.1-0.8,0.2-0.9-0.1c-0.4-0.6-0.2-1.2,0-1.7c0.1,0.4,0.2,0.8,0.3,1.2C178,23.9,178.5,24,178.6,24.2 M176.6,20.3
		c-0.1,0.4-0.2,1.1-0.6,1.4c0-0.3-0.1-0.4-0.3-0.6c-0.1,0,0,0.2-0.1,0.2c0,0.1-0.1,0.4-0.1,0.7c-0.1,0.1-0.4,0.2-0.8,0.1v-0.2
		c-0.1-0.1-0.1-0.4-0.1-0.6l-0.1-0.1c-0.2,0.1-0.2,0.2-0.2,0.4c-0.1,0.1-0.2,0.3-0.2,0.5c-0.3,0-0.4-0.1-0.6-0.2v-0.6
		c0-0.1,0-0.1-0.1-0.1l-0.4,0.4c-0.3-0.2-0.4-0.8-0.4-1.1c1.1-0.6,2.6-0.4,3.5-0.1C176.3,20.2,176.4,20.2,176.6,20.3 M180.2,26.1
		H180c-0.8,0.3-1.4-0.2-2.1-0.6c0.4-0.1,0.9-0.2,1.3-0.2l0.3,0.4C179.6,25.7,180,26,180.2,26.1 M169.6,15.3l-0.4,0.4
		c0.1,0.7-0.2,1.2-0.2,1.8l-0.4-1.1c0.1-0.3,0.1-0.6,0.4-0.9L169.6,15.3z M176.9,24.5c-0.4-0.2-1-0.3-0.9-0.7
		c0.1-0.4,0.4-0.4,0.5-0.6C176.6,23.7,176.7,24.1,176.9,24.5 M183.5,31.8h-0.1c-0.1-0.2-0.2-0.4-0.4-0.4c0.2-0.8-0.3-1.4-0.4-2.1
		v-0.3c0.2,0.4,0.8,0.7,0.7,1.1C183.5,30.9,183.5,31.4,183.5,31.8 M181.8,29.2c-0.4,0-0.6,0-0.9-0.4c-0.1,0-0.2-0.2-0.3-0.1
		c-0.4,0.3-0.7-0.3-1.1-0.1c-0.2,0.2-0.4,0.4-0.8,0.4V29c0-0.2,0.1-0.4,0.4-0.6c0.4,0.1,0.8-0.8,1.2-0.3c0.2,0.1,0.4,0.1,0.6,0.1
		C181.5,28.3,181.7,28.8,181.8,29.2 M175.3,23.3c0,0.5-0.1,1.1-0.6,1.4l-0.1-0.8C174.8,23.9,175.1,23.7,175.3,23.3 M177.7,26.5
		c-0.1,0.1-0.5,0.3-0.8,0.3c-0.4-0.4-0.7-0.8-1.1-1.3l1.1,0.2C177.1,25.8,177.5,26.3,177.7,26.5 M182,30.6c-0.3-0.3-0.7-0.3-0.9-0.6
		c-0.3-0.1-0.5-0.1-0.8-0.1c-0.3,0.1-0.6,0.1-0.9,0.1c-0.1,0,0-0.1-0.1-0.1c-0.4,0.1-0.9,0.1-1.3,0.6l0.4-0.9c0.3,0,0.5-0.1,0.6-0.1
		c0.3-0.1,0.5-0.1,0.8-0.1v0.1c0.8,0,1.7-0.1,2.3,0.6L182,30.6z M173.8,24.5c-0.4-0.4-0.8-0.8-0.8-1.2c0.3,0,0.4,0,0.6,0.1
		C173.7,23.8,173.8,24.1,173.8,24.5 M172.5,22.4l-0.2,0.9c-0.2-0.4-0.4-0.8-0.5-1.3L172.5,22.4z M182.7,32c-0.1,0.1-0.2,0.6-0.3,0.8
		c-0.1-0.4-0.3-1.1-0.8-1.1c-0.1-0.3-0.1-0.4-0.4-0.6l-0.6-0.1c0.1,0.3,0.5,0.3,0.2,0.6c0.3,0.2,0.5,0.2,0.6,0.6
		c0.1,0.2,0,0.5,0.1,0.6l-0.4,0.2c0-0.4,0.1-1.1-0.4-1.2c-0.4,0.1-0.5-0.4-0.8-0.6c-0.1,0-0.1-0.4-0.4-0.2c-0.4,0.2-0.8,0-1.1,0.2
		l0.4-0.6c0.3-0.2,0.6-0.1,0.9-0.2l0.6-0.1c0.6,0,1.1,0.3,1.6,0.5c0.3,0.1,0.4,0.4,0.4,0.6C182.4,31.8,182.7,31.8,182.7,32
		 M177.1,28.7h-0.1c-0.1,0-0.6-0.3-0.7-0.4c-0.1-0.2-0.1-0.4-0.1-0.4h0.6L177.1,28.7z M171.5,23.6c-0.4-0.1-0.9-0.6-1.1-0.9
		c-0.1-0.3-0.2-0.6-0.2-0.9c0.3,0,0.4,0.2,0.5,0.4v0.1C171.1,22.7,171.5,23,171.5,23.6 M175,26.1c-0.1,0.4-0.3,0.5-0.6,1.1
		c-0.2,0.1-0.6,0.2-1.1,0.4c0.1-0.2,0.3-0.3,0.4-0.5c0.1-0.2,0.4-0.6,0.5-0.8C174.6,26.1,174.7,26.1,175,26.1 M180.2,33l-0.2,0.2
		c-0.2-0.2-0.1-0.8-0.4-0.9c-0.4,0-0.6-0.4-0.8-0.4l0.3-0.1c0,0,0.1-0.1,0.3,0c0.1,0.1,0.3,0.2,0.3,0.4c0.1,0.2,0.4,0,0.5,0.2
		C180.2,32.6,180.3,32.9,180.2,33 M173.7,25.5c-0.2,0.4-0.4,0.8-0.9,1c-0.2,0-0.6,0.1-1,0c0.2-0.1,0.4-0.2,0.8-0.4l0.6-0.6
		L173.7,25.5L173.7,25.5z M175.1,28.8c-0.3,0.2-0.5,0.2-0.9,0.1l-0.4-0.6h1.1L175.1,28.8z M169.9,23.3c-0.4,0.4-0.7,0.5-0.9,0.9
		c0-0.2-0.1-0.4-0.1-0.6c0.1-0.3,0.3-0.4,0.4-0.5C169.5,23.3,169.7,23.3,169.9,23.3 M170.7,24.4c0,0.3-0.1,0.6-0.4,1
		c-0.1,0.1-0.3,0.2-0.3,0.2c0-0.4,0.2-0.8,0.2-1.1C170.4,24.4,170.6,24.3,170.7,24.4 M171.7,25.3l-0.3,1.1c-0.4,0.3-0.9,0.1-1.3,0.1
		c0.5-0.1,0.9-0.8,1.3-1.2C171.5,25.2,171.6,25.3,171.7,25.3 M172.1,28.9c0,0.2-0.1,1.1-0.1,1.1c-0.1-0.5-0.5-1-0.9-1
		c-0.2-0.2-0.4-0.4-0.5-0.6c-0.2-0.2-0.4,0-0.7-0.2c-0.3,0-0.6,0-0.9,0.2v-0.2l0.5-0.6c0.5,0.1,1.1,0,1.3,0.4
		c0.4,0.2,0.7,0.4,0.8,0.6v0.3C171.7,28.8,172,28.8,172.1,28.9 M171.7,31.2l-0.5,0.4c-0.1-0.2,0-0.5-0.2-0.8c0-0.1,0.1-0.2,0.1-0.3
		c-0.1-0.1-0.9-0.4-0.9-0.4c-0.3-0.2-0.6-0.4-0.9-0.7c-0.3-0.1-0.5,0.1-0.9,0.1v-0.1c0.1-0.3,0.1-0.6,0.6-0.6c0.2,0,0.5,0,0.6,0.2
		c0.3,0,0.4,0.3,0.6,0.4c0.3,0.4,0.6,0.5,0.8,0.6c0,0.2,0.1,0.4,0.2,0.4C171.7,30.4,171.6,30.9,171.7,31.2 M170.7,32.2l-0.2,0.7
		l-0.5-1.3c-0.6-0.5-1.2-0.6-1.6-0.9c-0.3-0.1-0.3,0.1-0.4,0c0-0.1,0-0.4,0.2-0.6h0.4l0.4,0.2c0.2,0.3,0.7,0.3,0.7,0.6
		c0,0.1-0.1,0.1,0.1,0.4l0.7,0.2L170.7,32.2z M168.7,32.9c0,0.6-0.9,1.4-0.9,1.4c0-0.4,0.3-0.8,0.3-1.2c0,0-0.3-0.3-0.6-0.3
		c-0.2,0.1-0.2,0.3-0.3,0.5c-0.2,0.4-0.6,0.9-0.7,1.3c-0.1,0-0.1-0.1-0.1-0.1c0-0.8,0.1-1.9,0.5-2.4c0.4-0.4,0.6-0.4,1.1-0.5
		l0.4,0.1L168,32C168.3,32.2,168.7,32.4,168.7,32.9 M166.2,32.4c0,0.3-0.1,0.6-0.2,0.8c-0.1-0.3-0.3-0.6-0.6-0.6
		c-0.3,0.6-0.4,0.8-0.1,1.6c-0.3,0.2-0.4,0.3-0.6,0.4c-0.1-0.3-0.1-0.8-0.1-1.1c0-0.5,0.1-1,0.2-1.4c0.2-0.2,0.4-0.6,0.6-0.8h0.8
		c-0.3,0-0.3,0.3-0.3,0.5C165.9,32,166.2,32.1,166.2,32.4 M164.4,33.2c-0.1,0-0.3-0.2-0.5-0.2c-0.2,0.4,0,0.7,0,1.2
		c0,0.2-0.1,0.4-0.1,0.4c-0.1,0-0.4-0.3-0.4-0.6V33l0.6-0.8C164.4,32.4,164.5,32.9,164.4,33.2 M179.1,13.4c0.1-0.4,0.1-1-0.1-1.3
		c-0.1-0.3-0.5-0.4-0.9-0.7l-0.5,0.3c-0.3,0.1-0.4,0.4-0.4,0.8c0.4,0.2,0.9,0.8,1.2,1.2h0.2C178.8,13.4,179,13.6,179.1,13.4
		 M176.7,13.8c0-0.2-0.1-0.2-0.1-0.2c-0.4,0-0.4-0.6-0.6-0.4c-0.1,0-0.3-0.1-0.5,0c0,0.1,0,0.1,0.1,0.1c0.4,0,0.3,0.5,0.5,0.6H176.7
		z M177.8,14.7C177.8,14.7,177.9,14.7,177.8,14.7l-1.5-0.3c-0.1,0.2-0.5,0.2-0.5,0.4h-0.1c0.1,0.6,0.1,1.2,0.1,1.8
		c0.3,0.1,0.6,0.2,0.6,0.6c0.3,0.1,0.6,0.2,0.9,0.4c0.1-0.1,0.2-0.3,0.3-0.5c-0.3-0.4-0.9-0.1-0.9-0.8l-0.4-0.1c0-0.4,0-0.8-0.1-1.1
		l0.1-0.1c0,0.1,0.1,0.1,0.2,0.3c0.3,0,0.6,0.1,0.9-0.1c0.1-0.1,0.1-0.4,0.3-0.4C177.6,14.8,177.7,14.8,177.8,14.7 M174.2,13.2
		c-0.1-0.1-0.6,0.1-0.8,0.1c-0.3,0.1-0.5,0.3-0.5,0.5h0.8C173.8,13.6,174.1,13.3,174.2,13.2 M172.7,12.4c-0.1-0.7-0.9-0.8-1.2-1.1
		h-0.3c-0.6,0.2-0.7,0.8-0.8,1.3c0.2,0.6,0.6,0.2,0.9,0.6C171.6,13.1,172.3,12.5,172.7,12.4 M176.9,19v-0.4h-0.7l-0.1,0.1L176.9,19z
		 M173.7,14.8c0-0.1-0.1-0.3-0.4-0.4h-1.7c0,0.3,0.2,0.4,0.4,0.4c0,0.3,0.2,0.4,0.3,0.4c0.2,0.1,0.3,0.1,0.5,0
		c0.2,0.1,0.3-0.1,0.4,0c0,0.4,0,0.6-0.1,0.9c-0.1,0.5-0.5,0.4-0.9,0.6c0,0.2-0.2,0.6,0,0.8c0.2-0.1,0.4-0.2,0.7-0.4
		c0-0.2,0.3-0.4,0.5-0.6C173.5,16.1,173.7,15.5,173.7,14.8 M173.1,18.6c-0.1-0.3-0.5,0-0.9-0.1c0,0.1,0,0.3,0.2,0.4
		C172.7,18.7,173.1,18.6,173.1,18.6"/>
	<path class="st1" d="M219.1,16.2c-0.8,0-1.8,0.1-2.6,0.3v16.4c0,1.1,1.5,1.1,2.6,1.1c4.5,0,6.7-3.7,6.7-8.9
		C225.8,19.9,223.3,16.2,219.1,16.2 M209.7,15.2l8.9-0.1c4.5,0,7.3,1.1,9.2,2.9c1.9,1.8,2.6,4.3,2.6,6.8c0,6.5-4.1,10.4-11.5,10.4
		h-9v-0.8c2.1,0,2.7-0.9,2.7-3.2V18.5c0-1.9-0.9-2.6-2.7-2.6L209.7,15.2L209.7,15.2z"/>
	<path class="st1" d="M288.4,28.8c-0.7,2.6-2.7,4.8-5.4,4.9h-2.3c-2.4,0-3.9-0.3-3.9-2.4v-6h3.2c1.6,0,2.8,0.3,2.9,2.6h1.1
		c-0.2-1.6-0.2-5.1,0-6.6h-1.1c-0.2,2.2-1.3,2.3-3,2.3h-3.1v-7c0,0,2-0.1,4.2-0.1c2.4,0,5,0.8,5.6,4.1h1.1c-0.2-1.9-0.3-4.6-0.3-5.5
		h-17.6v0.7c1.9,0,2.7,0.5,2.7,3.5v12c0,2.1-1.1,2.9-2.7,2.9v0.8h18c0.3-1.6,1.2-4.5,1.6-6.2L288.4,28.8L288.4,28.8z"/>
	<path class="st1" d="M310.7,28c-0.5,2.7-2.4,5.9-7.3,5.9c-3.1,0-6.8-3-6.7-8.9c0.1-5.7,3.5-8.8,7.2-8.8c4,0,5.6,2.6,6.2,5.3h1.1
		c-0.3-1.9-0.4-4.6-0.6-6.8h-0.9c-0.1,0.7-0.4,1.3-0.8,1.3c-1.2,0-2.4-1.3-5.3-1.3c-8,0-11.7,4.8-11.7,10.7
		c0,5.3,3.9,10.1,11.1,10.1c5.3,0,8.4-3.1,9.4-7.5C312.3,28,310.7,28,310.7,28z"/>
	<path class="st1" d="M318.9,35.1v-0.8c1.9,0,2.9-0.8,2.9-4.7V16.6l-1.5-0.1c-2.5,0-4.3,1.4-4.9,4h-1.1c0.4-3.3,0.6-5.5,0.6-5.5
		h18.3c0,0,0.1,2.2,0.6,5.5h-1.1c-0.6-2.6-2.5-4-5-4l-1.6,0.1v13c0,3.8,0.9,4.7,2.9,4.7v0.8L318.9,35.1L318.9,35.1z"/>
	<path class="st1" d="M233.7,35.1v-0.8c1.7,0,3-0.1,3-2.6V18.5c0-2.6-0.9-2.6-3-2.6v-0.8h10.1v0.8c-2.1,0-3,0.1-3,2.6v13.1
		c0,2.5,1.1,2.6,3,2.6v0.8L233.7,35.1L233.7,35.1z"/>
	<path class="st1" d="M260.3,20.7c0-3.7-2.3-4.4-4.7-4.4c-0.5,0-0.9,0.1-1.6,0.3v7.8c0.8,0.2,1.1,0.2,2,0.2
		C258.5,24.6,260.3,23.1,260.3,20.7 M267.7,34.3v0.8h-5.8l-6-9h-1.9v5c0,2.8,1,3.3,3,3.3v0.8h-9.9v-0.8c2.6,0,2.7-1.4,2.7-3.2V18.6
		c0-2.3-0.6-2.8-2.7-2.8v-0.7l8.9-0.1c4.6-0.1,8.5,1.1,8.5,5.3c0,3-2.1,4.8-4.3,5.3l5.1,7.3C266.2,33.9,266.5,34.3,267.7,34.3"/>
</g>
</svg>
