<?xml version="1.0" encoding="utf-8"?>
<!-- Generator: Adobe Illustrator 17.1.0, SVG Export Plug-In . SVG Version: 6.00 Build 0)  -->
<!DOCTYPE svg PUBLIC "-//W3C//DTD SVG 1.1//EN" "http://www.w3.org/Graphics/SVG/1.1/DTD/svg11.dtd">
<svg version="1.1" id="Calque_1" xmlns="http://www.w3.org/2000/svg" xmlns:xlink="http://www.w3.org/1999/xlink" x="0px" y="0px"
	 viewBox="144.6 389.8 306.1 62.4" enable-background="new 144.6 389.8 306.1 62.4" xml:space="preserve">
<g>
	<path fill="#BAD606" d="M148.8,404.8h8.6v4.5h0.1c2.4-3.4,5.9-5.4,10.2-5.4c4.2,0,7.9,1.6,9.7,5.5c1.9-2.9,5.4-5.5,10-5.5
		c7.1,0,12.2,3.3,12.2,11.9v22.3h-9.1v-18.8c0-4.5-0.4-8.1-5.6-8.1c-5.2,0-6.1,4.2-6.1,8.4v18.5h-9.1v-18.7c0-3.9,0.3-8.3-5.5-8.3
		c-1.8,0-6.2,1.1-6.2,7.6v19.3H149v-33.3H148.8z"/>
	<path fill="#BAD606" d="M219.3,403.9c10.5,0,17.3,6.9,17.3,17.5c0,10.5-6.8,17.5-17.3,17.5c-10.4,0-17.2-6.9-17.2-17.5
		C202.2,410.9,208.9,403.9,219.3,403.9z M219.3,432.1c6.2,0,8.1-5.3,8.1-10.6s-1.8-10.7-8.1-10.7c-6.2,0-8.1,5.3-8.1,10.7
		C211.3,426.7,213.2,432.1,219.3,432.1z"/>
	<path fill="#BAD606" d="M238.8,404.8h8.7v4.6h0.2c2.3-3.7,6.3-5.5,10.2-5.5c9.7,0,12.2,5.4,12.2,13.7V438h-9.1v-18.8
		c0-5.4-1.6-8.2-5.9-8.2c-4.9,0-7.1,2.8-7.1,9.5v17.4h-9.1L238.8,404.8L238.8,404.8z"/>
	<path fill="#BAD606" d="M274.2,415c0.5-8.6,8.2-11.1,15.6-11.1c6.6,0,14.6,1.5,14.6,9.5v17.3c0,3,0.4,6,1.1,7.4h-9.3
		c-0.4-1.1-0.6-2.1-0.6-3.2c-2.9,3-7.1,4.1-11.2,4.1c-6.3,0-11.3-3.2-11.3-10c0-7.5,5.7-9.3,11.3-10.1c5.6-0.8,10.8-0.6,10.8-4.4
		c0-3.9-2.7-4.5-5.9-4.5c-3.5,0-5.7,1.4-6.1,5L274.2,415L274.2,415z M295.3,421.8c-1.6,1.3-4.7,1.4-7.6,1.9
		c-2.8,0.6-5.4,1.6-5.4,4.9c0,3.4,2.6,4.2,5.6,4.2c7.1,0,7.4-5.7,7.4-7.6L295.3,421.8L295.3,421.8z"/>
</g>
<g>
	<path fill="#FFFFFF" d="M308.1,392.1h9.1v16.7h0.1c2.3-3.4,6.4-4.9,10.5-4.9c6.6,0,13.8,5.3,13.8,17.5c0,12.2-7.1,17.5-13.8,17.5
		c-4.9,0-8.9-1.5-11-5.2h-0.1v4.2h-8.7L308.1,392.1L308.1,392.1z M324.7,410.8c-5.4,0-7.8,5.1-7.8,10.7c0,5.5,2.4,10.6,7.8,10.6
		c5.4,0,7.8-5.1,7.8-10.6C332.5,415.9,330.1,410.8,324.7,410.8z"/>
	<path fill="#FFFFFF" d="M344.6,415c0.5-8.6,8.2-11.1,15.6-11.1c6.6,0,14.6,1.5,14.6,9.5v17.3c0,3,0.4,6,1.1,7.4h-9.3
		c-0.4-1.1-0.6-2.1-0.6-3.2c-2.9,3-7.1,4.1-11.2,4.1c-6.3,0-11.3-3.2-11.3-10c0-7.5,5.7-9.3,11.3-10.1c5.6-0.8,10.8-0.6,10.8-4.4
		c0-3.9-2.7-4.5-5.9-4.5c-3.5,0-5.7,1.4-6.1,5L344.6,415L344.6,415z M365.7,421.8c-1.6,1.3-4.7,1.4-7.6,1.9
		c-2.8,0.6-5.4,1.6-5.4,4.9c0,3.4,2.6,4.2,5.6,4.2c7.1,0,7.4-5.7,7.4-7.6L365.7,421.8L365.7,421.8z"/>
	<path fill="#FFFFFF" d="M378.7,404.8h8.7v4.6h0.2c2.3-3.7,6.3-5.5,10.2-5.5c9.7,0,12.2,5.4,12.2,13.7V438h-9.1v-18.8
		c0-5.4-1.6-8.2-5.9-8.2c-4.9,0-7.1,2.8-7.1,9.5v17.4h-9.1L378.7,404.8L378.7,404.8z"/>
	<path fill="#FFFFFF" d="M446.4,449.8h-9.1v-15.9h-0.1c-2.1,3.6-6.5,5.1-10.5,5.1c-6.1,0-14.1-4.5-14.1-17.3
		c0-9.1,4.8-17.7,14.9-17.7c4.1,0,8.1,1.5,10.1,5.2h0.1v-4.2h8.7L446.4,449.8L446.4,449.8z M429.7,432.1c5.9,0,8-5,8-10.5
		c0-5.2-2.1-10.8-7.8-10.8c-5.9,0-8.1,5.3-8.1,10.7C421.8,426.8,423.7,432.1,429.7,432.1z"/>
</g>
</svg>
