<?xml version="1.0" encoding="UTF-8" standalone="no"?>
<!-- Created with Inkscape (http://www.inkscape.org/) -->

<svg
   xmlns:dc="http://purl.org/dc/elements/1.1/"
   xmlns:cc="http://creativecommons.org/ns#"
   xmlns:rdf="http://www.w3.org/1999/02/22-rdf-syntax-ns#"
   xmlns:svg="http://www.w3.org/2000/svg"
   xmlns="http://www.w3.org/2000/svg"
   xmlns:sodipodi="http://sodipodi.sourceforge.net/DTD/sodipodi-0.dtd"
   xmlns:inkscape="http://www.inkscape.org/namespaces/inkscape"
   width="59.602848mm"
   height="13.158611mm"
   viewBox="0 0 211.19119 46.625"
   id="svg4995"
   version="1.1"
   inkscape:version="0.91 r13725"
   sodipodi:docname="topbanque-logo.svg">
  <defs
     id="defs4997" />
  <sodipodi:namedview
     id="base"
     pagecolor="#ffffff"
     bordercolor="#666666"
     borderopacity="1.0"
     inkscape:pageopacity="0.0"
     inkscape:pageshadow="2"
     inkscape:zoom="0.35"
     inkscape:cx="-1062.2615"
     inkscape:cy="-356.6875"
     inkscape:document-units="px"
     inkscape:current-layer="layer1"
     showgrid="false"
     inkscape:window-width="1920"
     inkscape:window-height="1017"
     inkscape:window-x="-8"
     inkscape:window-y="-8"
     inkscape:window-maximized="1"
     fit-margin-top="0"
     fit-margin-left="0"
     fit-margin-right="0"
     fit-margin-bottom="0" />
  <metadata
     id="metadata5000">
    <rdf:RDF>
      <cc:Work
         rdf:about="">
        <dc:format>image/svg+xml</dc:format>
        <dc:type
           rdf:resource="http://purl.org/dc/dcmitype/StillImage" />
        <dc:title></dc:title>
      </cc:Work>
    </rdf:RDF>
  </metadata>
  <g
     inkscape:label="Calque 1"
     inkscape:groupmode="layer"
     id="layer1"
     transform="translate(-120.11869,-129.0497)">
    <path
       inkscape:connector-curvature="0"
       id="path5008-7-8-4"
       style="font-style:normal;font-variant:normal;font-weight:bold;font-stretch:normal;font-size:medium;line-height:125%;font-family:Comfortaa;-inkscape-font-specification:'Comfortaa, Bold';text-align:start;letter-spacing:0px;word-spacing:0px;writing-mode:lr-tb;text-anchor:start;fill:#f13600;fill-opacity:1;stroke:none;stroke-width:1px;stroke-linecap:butt;stroke-linejoin:miter;stroke-opacity:1"
       d="m 147.68899,133.19082 -13.7149,0 0,27.03907 -4.1406,0 0,-27.03907 -9.7148,0 0,-4.14062 27.5703,-5e-4 z"
       sodipodi:nodetypes="ccccccccc"
       inkscape:export-xdpi="61.769436"
       inkscape:export-ydpi="61.769436" />
    <path
       inkscape:connector-curvature="0"
       id="path5010-9-2-4"
       style="font-style:normal;font-variant:normal;font-weight:bold;font-stretch:normal;font-size:medium;line-height:125%;font-family:Comfortaa;-inkscape-font-specification:'Comfortaa, Bold';text-align:start;letter-spacing:0px;word-spacing:0px;writing-mode:lr-tb;text-anchor:start;fill:#f13600;fill-opacity:1;stroke:none;stroke-width:1px;stroke-linecap:butt;stroke-linejoin:miter;stroke-opacity:1"
       d="m 159.43489,151.3627 q 0,4.57031 -3.2032,7.73437 -3.2421,3.20313 -7.7343,3.20313 -4.5313,0 -7.7344,-3.20313 -3.2031,-3.20312 -3.2031,-7.73437 0,-4.53125 3.2031,-7.73438 3.2031,-3.20312 7.7344,-3.20312 4.4922,0 7.7343,3.20312 1.6016,1.60157 2.3829,3.53516 0.8007,1.93359 0.8203,4.19922 z m -10.9375,-6.85547 q -1.4453,0 -2.6953,0.54687 -1.25,0.54688 -2.168,1.48438 -0.918,0.91797 -1.4649,2.16797 -0.5273,1.25 -0.5273,2.65625 0,1.40625 0.5273,2.65625 0.5469,1.25 1.4649,2.1875 0.918,0.91797 2.168,1.46484 1.25,0.54688 2.6953,0.54688 1.4258,0 2.6758,-0.54688 1.25,-0.54687 2.1679,-1.48437 0.9375,-0.9375 1.4649,-2.16797 0.5468,-1.25 0.5468,-2.65625 0,-1.40625 -0.5468,-2.63672 -0.5274,-1.25 -1.4649,-2.1875 -0.9179,-0.9375 -2.1679,-1.48438 -1.25,-0.54687 -2.6758,-0.54687 z"
       inkscape:export-xdpi="61.769436"
       inkscape:export-ydpi="61.769436" />
    <path
       inkscape:connector-curvature="0"
       id="path5012-7-7-8"
       style="font-style:normal;font-variant:normal;font-weight:bold;font-stretch:normal;font-size:medium;line-height:125%;font-family:Comfortaa;-inkscape-font-specification:'Comfortaa, Bold';text-align:start;letter-spacing:0px;word-spacing:0px;writing-mode:lr-tb;text-anchor:start;fill:#f13600;fill-opacity:1;stroke:none;stroke-width:1px;stroke-linecap:butt;stroke-linejoin:miter;stroke-opacity:1"
       d="m 166.64189,151.3627 c 0,0.9375 0.1758,1.82292 0.5273,2.65625 0.3646,0.83333 0.8529,1.5625 1.4649,2.1875 0.612,0.61198 1.3347,1.10026 2.168,1.46484 0.8333,0.36459 1.7318,0.54688 2.6953,0.54688 0.9505,0 1.8425,-0.18229 2.6758,-0.54688 0.8333,-0.36458 1.556,-0.85937 2.1679,-1.48437 0.625,-0.625 1.1133,-1.34766 1.4649,-2.16797 0.3645,-0.83333 0.5468,-1.71875 0.5468,-2.65625 0,-0.9375 -0.1823,-1.81641 -0.5468,-2.63672 -0.3516,-0.83333 -0.8399,-1.5625 -1.4649,-2.1875 -0.6119,-0.625 -1.3346,-1.11979 -2.1679,-1.48438 -0.8333,-0.36458 -1.7253,-0.54687 -2.6758,-0.54687 -0.9635,0 -1.862,0.18229 -2.6953,0.54687 -0.8333,0.36459 -1.556,0.85938 -2.168,1.48438 -0.612,0.61198 -1.1003,1.33464 -1.4649,2.16797 -0.3515,0.83333 -0.5273,1.71875 -0.5273,2.65625 z m 6.8555,10.9375 c -2.6172,0 -4.9024,-0.80078 -6.8555,-2.40235 l 0,13.7461 -4.082,0 0,-22.28125 c 0,-3.02083 1.0677,-5.59896 3.2031,-7.73438 2.1354,-2.13541 4.7135,-3.20312 7.7344,-3.20312 2.9948,0 5.5729,1.06771 7.7343,3.20312 1.0677,1.05469 1.8685,2.23307 2.4024,3.53516 0.5339,1.28906 0.8008,2.6888 0.8008,4.19922 0,3.04687 -1.0677,5.625 -3.2032,7.73437 -1.0937,1.08073 -2.2851,1.88803 -3.5742,2.42188 -1.276,0.52083 -2.6627,0.78125 -4.1601,0.78125 z"
       sodipodi:nodetypes="sccsssccsccsssccsscccsssccsccs"
       inkscape:export-xdpi="61.769436"
       inkscape:export-ydpi="61.769436" />
    <path
       inkscape:connector-curvature="0"
       id="path5014-5-1-7"
       style="font-style:normal;font-variant:normal;font-weight:bold;font-stretch:normal;font-size:medium;line-height:125%;font-family:Comfortaa;-inkscape-font-specification:'Comfortaa, Bold';text-align:start;letter-spacing:0px;word-spacing:0px;writing-mode:lr-tb;text-anchor:start;fill:#002e6e;fill-opacity:1;stroke:none;stroke-width:1px;stroke-linecap:butt;stroke-linejoin:miter;stroke-opacity:1"
       d="m 198.49739,158.21817 c 0.9505,0 1.8425,-0.18229 2.6758,-0.54688 0.8333,-0.36458 1.556,-0.85937 2.1679,-1.48437 0.625,-0.625 1.1133,-1.34766 1.4649,-2.16797 0.3645,-0.83333 0.5468,-1.71875 0.5468,-2.65625 0,-0.9375 -0.1823,-1.81641 -0.5468,-2.63672 -0.3516,-0.83333 -0.8399,-1.5625 -1.4649,-2.1875 -0.6119,-0.625 -1.3346,-1.11979 -2.1679,-1.48438 -0.8333,-0.36458 -1.7253,-0.54687 -2.6758,-0.54687 -0.9635,0 -1.862,0.18229 -2.6953,0.54687 -0.8333,0.36459 -1.556,0.85938 -2.168,1.48438 -0.612,0.61198 -1.1003,1.33464 -1.4649,2.16797 -0.3515,0.83333 -0.5273,1.71875 -0.5273,2.65625 0,0.9375 0.1758,1.82292 0.5273,2.65625 0.3646,0.83333 0.8529,1.5625 1.4649,2.1875 0.612,0.61198 1.3347,1.10026 2.168,1.46484 0.8333,0.36459 1.7318,0.54688 2.6953,0.54688 z m -6.8555,-15.3711 c 1.9401,-1.61458 4.2253,-2.42187 6.8555,-2.42187 2.9948,0 5.5729,1.06771 7.7343,3.20312 1.0677,1.05469 1.8685,2.23307 2.4024,3.53516 0.5339,1.28906 0.8008,2.6888 0.8008,4.19922 0,3.04687 -1.0677,5.625 -3.2032,7.73437 -2.1614,2.13542 -4.7395,3.20313 -7.7343,3.20313 -3.0209,0 -5.599,-1.06771 -7.7344,-3.20313 -2.1354,-2.13541 -3.2031,-4.71354 -3.2031,-7.73437 l 0,-22.313 4.082,0 z"
       sodipodi:nodetypes="ssccsccsssccsccsscsccscsssccc"
       inkscape:export-xdpi="61.769436"
       inkscape:export-ydpi="61.769436" />
    <path
       inkscape:connector-curvature="0"
       id="path5016-4-5-6"
       style="font-style:normal;font-variant:normal;font-weight:bold;font-stretch:normal;font-size:medium;line-height:125%;font-family:Comfortaa;-inkscape-font-specification:'Comfortaa, Bold';text-align:start;letter-spacing:0px;word-spacing:0px;writing-mode:lr-tb;text-anchor:start;fill:#002e6e;fill-opacity:1;stroke:none;stroke-width:1px;stroke-linecap:butt;stroke-linejoin:miter;stroke-opacity:1"
       d="m 223.49739,144.50723 c -0.9635,0 -1.862,0.18229 -2.6953,0.54687 -0.8333,0.36459 -1.556,0.85938 -2.168,1.48438 -0.612,0.61198 -1.1003,1.33464 -1.4649,2.16797 -0.3515,0.83333 -0.5273,1.71875 -0.5273,2.65625 0,0.9375 0.1758,1.82292 0.5273,2.65625 0.3646,0.83333 0.8529,1.5625 1.4649,2.1875 0.612,0.61198 1.3347,1.10026 2.168,1.46484 0.8333,0.36459 1.7318,0.54688 2.6953,0.54688 0.9505,0 1.8425,-0.18229 2.6758,-0.54688 0.8333,-0.36458 1.556,-0.85937 2.1679,-1.48437 0.625,-0.625 1.1133,-1.34766 1.4649,-2.16797 0.3645,-0.83333 0.5468,-1.71875 0.5468,-2.65625 0,-0.9375 -0.1823,-1.81641 -0.5468,-2.63672 -0.3516,-0.83333 -0.8399,-1.5625 -1.4649,-2.1875 -0.6119,-0.625 -1.3346,-1.11979 -2.1679,-1.48438 -0.8333,-0.36458 -1.7253,-0.54687 -2.6758,-0.54687 z m 6.8554,17.79247 0,-2.42138 c -0.9765,0.78125 -2.0377,1.38021 -3.1836,1.79688 -1.1458,0.41667 -2.3697,0.625 -3.6718,0.625 -3.0209,0 -5.599,-1.06771 -7.7344,-3.20313 -2.1354,-2.13541 -3.2031,-4.71354 -3.2031,-7.73437 0,-3.02083 1.0677,-5.59896 3.2031,-7.73438 2.1354,-2.13541 4.7135,-3.20312 7.7344,-3.20312 2.9948,0 5.5729,1.06771 7.7343,3.20312 2.1355,2.13542 3.2032,4.71355 3.2032,7.73438 l 0,10.937 z"
       sodipodi:nodetypes="ssccsccsssccsccsscccssssscscc"
       inkscape:export-xdpi="61.769436"
       inkscape:export-ydpi="61.769436" />
    <path
       inkscape:connector-curvature="0"
       id="path5018-6-8-3"
       style="font-style:normal;font-variant:normal;font-weight:bold;font-stretch:normal;font-size:medium;line-height:125%;font-family:Comfortaa;-inkscape-font-specification:'Comfortaa, Bold';text-align:start;letter-spacing:0px;word-spacing:0px;writing-mode:lr-tb;text-anchor:start;fill:#002e6e;fill-opacity:1;stroke:none;stroke-width:1px;stroke-linecap:butt;stroke-linejoin:miter;stroke-opacity:1"
       d="m 241.62209,142.43692 c 1.7317,-1.34115 3.7698,-2.01172 6.1136,-2.01172 1.3671,0 2.6627,0.26693 3.8867,0.80078 1.2369,0.53385 2.3242,1.26302 3.2617,2.1875 0.9375,0.91146 1.6797,1.99219 2.2266,3.24219 0.5469,1.23698 0.8203,2.55859 0.8203,3.96484 l 0,11.67919 -4.0821,0 0,-11.67919 c 0,-0.83333 -0.1627,-1.62109 -0.4882,-2.36328 -0.3255,-0.74219 -0.7683,-1.38672 -1.3282,-1.93359 -0.5469,-0.5599 -1.1914,-1.00261 -1.9336,-1.32813 -0.7421,-0.32552 -1.5299,-0.48828 -2.3632,-0.48828 -0.8464,0 -1.6407,0.16276 -2.3829,0.48828 -0.7291,0.3125 -1.3737,0.7487 -1.9336,1.30859 -0.5599,0.5599 -1.0026,1.21094 -1.3281,1.95313 -0.3125,0.74219 -0.4687,1.52995 -0.4687,2.36328 l 0,11.67919 -4.0821,0 -2e-4,-19.82372 0,-2.05128 4.082,0 z"
       sodipodi:nodetypes="cscccsccscccscccscccccc"
       inkscape:export-xdpi="61.769436"
       inkscape:export-ydpi="61.769436" />
    <path
       inkscape:connector-curvature="0"
       id="path5020-1-0-25"
       style="font-style:normal;font-variant:normal;font-weight:bold;font-stretch:normal;font-size:medium;line-height:125%;font-family:Comfortaa;-inkscape-font-specification:'Comfortaa, Bold';text-align:start;letter-spacing:0px;word-spacing:0px;writing-mode:lr-tb;text-anchor:start;fill:#002e6e;fill-opacity:1;stroke:none;stroke-width:1px;stroke-linecap:butt;stroke-linejoin:miter;stroke-opacity:1"
       d="m 271.93489,144.50723 c -0.9635,0 -1.862,0.18229 -2.6953,0.54687 -0.8333,0.36459 -1.556,0.85938 -2.168,1.48438 -0.612,0.61198 -1.1003,1.33464 -1.4649,2.16797 -0.3515,0.83333 -0.5273,1.71875 -0.5273,2.65625 0,0.9375 0.1758,1.82292 0.5273,2.65625 0.3646,0.83333 0.8529,1.5625 1.4649,2.1875 0.612,0.61198 1.3347,1.10026 2.168,1.46484 0.8333,0.36459 1.7318,0.54688 2.6953,0.54688 0.9505,0 1.8425,-0.18229 2.6758,-0.54688 0.8333,-0.36458 1.556,-0.85937 2.1679,-1.48437 0.625,-0.625 1.1133,-1.34766 1.4649,-2.16797 0.3645,-0.83333 0.5468,-1.71875 0.5468,-2.65625 0,-0.9375 -0.1823,-1.81641 -0.5468,-2.63672 -0.3516,-0.83333 -0.8399,-1.5625 -1.4649,-2.1875 -0.6119,-0.625 -1.3346,-1.11979 -2.1679,-1.48438 -0.8333,-0.36458 -1.7253,-0.54687 -2.6758,-0.54687 z m 6.8554,15.39062 c -1.9531,1.60157 -4.2382,2.40235 -6.8554,2.40235 -3.0209,0 -5.599,-1.06771 -7.7344,-3.20313 -2.1354,-2.13541 -3.2031,-4.71354 -3.2031,-7.73437 0,-3.02083 1.0677,-5.59896 3.2031,-7.73438 2.1354,-2.13541 4.7135,-3.20312 7.7344,-3.20312 2.9948,0 5.5729,1.06771 7.7343,3.20312 2.1355,2.13542 3.2032,4.71355 3.2032,7.73438 l 0,24.312 -4.0821,0 z"
       sodipodi:nodetypes="ssccsccsssccsccsscssssscsccc"
       inkscape:export-xdpi="61.769436"
       inkscape:export-ydpi="61.769436" />
    <path
       inkscape:connector-curvature="0"
       id="path5022-2-2-6"
       style="font-style:normal;font-variant:normal;font-weight:bold;font-stretch:normal;font-size:medium;line-height:125%;font-family:Comfortaa;-inkscape-font-specification:'Comfortaa, Bold';text-align:start;letter-spacing:0px;word-spacing:0px;writing-mode:lr-tb;text-anchor:start;fill:#002e6e;fill-opacity:1;stroke:none;stroke-width:1px;stroke-linecap:butt;stroke-linejoin:miter;stroke-opacity:1"
       d="m 302.30069,162.2997 c -0.01,-0.0697 -0.013,-1.93864 -0.014,-2.01122 -0.8984,0.70313 -1.8489,1.21745 -2.8515,1.54297 -1.0026,0.3125 -2.0898,0.46875 -3.2617,0.46875 -1.3933,0 -2.7084,-0.26693 -3.9454,-0.80078 -1.2369,-0.54688 -2.3176,-1.28256 -3.2421,-2.20703 -0.9245,-0.92448 -1.6602,-2.00521 -2.2071,-3.24219 -0.5339,-1.23698 -0.8008,-2.55208 -0.8008,-3.94531 l 0,-9.64844 0,-2.03175 4.082,0 0,2.03175 10e-5,9.64844 c 0,0.84635 0.1562,1.64062 0.4687,2.38281 0.3256,0.74219 0.7618,1.39323 1.3086,1.95312 0.56,0.54688 1.211,0.98308 1.9531,1.3086 0.7423,0.3125 1.5366,0.46875 2.3829,0.46875 0.8333,0 1.6211,-0.15625 2.3632,-0.46875 0.7422,-0.32552 1.3933,-0.76823 1.9533,-1.32813 0.5599,-0.55989 0.996,-1.20442 1.3085,-1.93359 0.3255,-0.74219 0.4882,-1.53646 0.4882,-2.38281 l 4e-4,-9.64844 0,-2.03175 c 1.2685,-0.18143 3.0626,-0.0602 4.082,0 l 0,2.03175 -3e-4,19.84325 z"
       sodipodi:nodetypes="cccscccsccccscccscccscccccc"
       inkscape:export-xdpi="61.769436"
       inkscape:export-ydpi="61.769436" />
    <path
       inkscape:connector-curvature="0"
       id="path5024-0-8-3"
       style="font-style:normal;font-variant:normal;font-weight:bold;font-stretch:normal;font-size:medium;line-height:125%;font-family:Comfortaa;-inkscape-font-specification:'Comfortaa, Bold';text-align:start;letter-spacing:0px;word-spacing:0px;writing-mode:lr-tb;text-anchor:start;fill:#002e6e;fill-opacity:1;stroke:none;stroke-width:1px;stroke-linecap:butt;stroke-linejoin:miter;stroke-opacity:1"
       d="m 326.95439,149.33145 q -0.332,-1.07422 -0.9961,-1.95313 -0.6445,-0.89843 -1.5234,-1.52343 -0.8594,-0.64454 -1.9141,-0.9961 -1.0351,-0.35156 -2.1484,-0.35156 -1.1133,0 -2.168,0.35156 -1.0547,0.35156 -1.9336,0.9961 -0.8789,0.625 -1.5234,1.52343 -0.6446,0.87891 -0.9571,1.95313 l 13.1641,0 z m -0.8789,6.8164 q 0.8789,0 1.4453,0.58594 0.5859,0.56641 0.5859,1.44531 0,0.85938 -0.5859,1.46485 -3.0273,2.65625 -7.1484,2.65625 -4.5313,0 -7.7344,-3.20313 -3.2031,-3.20312 -3.2031,-7.73437 0,-4.53125 3.2031,-7.73438 3.2031,-3.20312 7.7344,-3.20312 4.4922,0 7.7343,3.20312 1.6016,1.58203 2.4024,3.53516 0.8008,1.93359 0.8008,4.19922 0,0.8789 -0.6055,1.46484 -0.5859,0.56641 -1.4453,0.56641 l -15.4688,0 q 0.3321,1.07422 0.9766,1.97265 0.6445,0.87891 1.5039,1.52344 0.8789,0.625 1.9141,0.97656 1.0547,0.35157 2.1875,0.35157 1.289,0 2.3633,-0.39063 1.0742,-0.39062 1.9921,-1.17187 0.586,-0.48828 1.3477,-0.50782 z"
       inkscape:export-xdpi="61.769436"
       inkscape:export-ydpi="61.769436" />
  </g>
</svg>
